<svg width="28" height="21" viewBox="0 0 28 21" fill="none" xmlns="http://www.w3.org/2000/svg">
<path d="M23.2935 1.93474C26.3256 6.39278 27.823 11.4213 27.2633 17.2103C27.2609 17.2348 27.2482 17.2573 27.228 17.2721C24.9319 18.9581 22.7072 19.9813 20.5138 20.6599C20.4967 20.6651 20.4784 20.6648 20.4615 20.6591C20.4446 20.6534 20.4299 20.6425 20.4195 20.628C19.9127 19.923 19.4523 19.1796 19.0489 18.399C19.0258 18.353 19.0469 18.2977 19.0946 18.2795C19.8258 18.004 20.5212 17.6738 21.19 17.2828C21.2427 17.252 21.2461 17.1764 21.1974 17.1402C21.0554 17.0348 20.9148 16.9241 20.7803 16.8133C20.7551 16.7929 20.7212 16.7888 20.6927 16.8026C16.3504 18.8078 11.5937 18.8078 7.20008 16.8026C7.17156 16.7898 7.13766 16.7942 7.11317 16.8143C6.97893 16.9251 6.83798 17.0348 6.69736 17.1402C6.6487 17.1764 6.65273 17.252 6.70575 17.2828C7.37459 17.6664 8.06995 18.004 8.8002 18.2809C8.84752 18.299 8.87 18.353 8.84651 18.399C8.45185 19.1806 7.99142 19.924 7.47527 20.629C7.45279 20.6576 7.41587 20.6707 7.38097 20.6599C5.19793 19.9813 2.97327 18.9581 0.677134 17.2721C0.658005 17.2573 0.644246 17.2338 0.642232 17.2093C0.174413 12.2019 1.12784 7.13176 4.60829 1.93374C4.61668 1.91998 4.62943 1.90924 4.6442 1.90286C6.35674 1.1169 8.19143 0.538671 10.109 0.208446C10.1439 0.203076 10.1788 0.219185 10.1969 0.25006C10.4339 0.669553 10.7047 1.20751 10.8879 1.64714C12.9092 1.33839 14.9621 1.33839 17.0256 1.64714C17.2089 1.21691 17.4703 0.669553 17.7062 0.25006C17.7146 0.234743 17.7276 0.222472 17.7434 0.214999C17.7592 0.207526 17.777 0.205232 17.7941 0.208446C19.7127 0.539678 21.5474 1.11791 23.2586 1.90286C23.2737 1.90924 23.2861 1.91998 23.2935 1.93474ZM11.9155 11.4556C11.9367 9.97526 10.8574 8.75033 9.5026 8.75033C8.15888 8.75033 7.09001 9.96452 7.09001 11.4556C7.09001 12.9463 8.18002 14.1605 9.5026 14.1605C10.8467 14.1605 11.9155 12.9463 11.9155 11.4556ZM20.8363 11.4556C20.8574 9.97526 19.7782 8.75033 18.4237 8.75033C17.0797 8.75033 16.0108 9.96452 16.0108 11.4556C16.0108 12.9463 17.1008 14.1605 18.4237 14.1605C19.7782 14.1605 20.8363 12.9463 20.8363 11.4556Z" fill="white"/>
</svg>
