
<svg width="27" height="21" viewBox="0 0 27 21" fill="none" xmlns="http://www.w3.org/2000/svg">
<path d="M22.7935 1.93474C25.8256 6.39278 27.323 11.4213 26.7633 17.2103C26.7609 17.2348 26.7482 17.2573 26.728 17.2721C24.4319 18.9581 22.2072 19.9813 20.0138 20.6599C19.9967 20.6651 19.9784 20.6648 19.9615 20.6591C19.9446 20.6534 19.9299 20.6425 19.9195 20.628C19.4127 19.923 18.9523 19.1796 18.5489 18.399C18.5258 18.353 18.5469 18.2977 18.5946 18.2795C19.3258 18.004 20.0212 17.6738 20.69 17.2828C20.7427 17.252 20.7461 17.1764 20.6974 17.1402C20.5554 17.0348 20.4148 16.9241 20.2803 16.8133C20.2551 16.7929 20.2212 16.7888 20.1927 16.8026C15.8504 18.8078 11.0937 18.8078 6.70008 16.8026C6.67156 16.7898 6.63766 16.7942 6.61317 16.8143C6.47893 16.9251 6.33798 17.0348 6.19736 17.1402C6.1487 17.1764 6.15273 17.252 6.20575 17.2828C6.87459 17.6664 7.56995 18.004 8.3002 18.2809C8.34752 18.299 8.37 18.353 8.34651 18.399C7.95185 19.1806 7.49142 19.924 6.97527 20.629C6.95279 20.6576 6.91587 20.6707 6.88097 20.6599C4.69793 19.9813 2.47327 18.9581 0.177134 17.2721C0.158005 17.2573 0.144246 17.2338 0.142232 17.2093C-0.325587 12.2019 0.627837 7.13176 4.10829 1.93374C4.11668 1.91998 4.12943 1.90924 4.1442 1.90286C5.85674 1.1169 7.69143 0.538671 9.60902 0.208446C9.64392 0.203076 9.67882 0.219185 9.69694 0.25006C9.93387 0.669553 10.2047 1.20751 10.3879 1.64714C12.4092 1.33839 14.4621 1.33839 16.5256 1.64714C16.7089 1.21691 16.9703 0.669553 17.2062 0.25006C17.2146 0.234743 17.2276 0.222472 17.2434 0.214999C17.2592 0.207526 17.277 0.205232 17.2941 0.208446C19.2127 0.539678 21.0474 1.11791 22.7586 1.90286C22.7737 1.90924 22.7861 1.91998 22.7935 1.93474ZM11.4155 11.4556C11.4367 9.97526 10.3574 8.75033 9.0026 8.75033C7.65888 8.75033 6.59001 9.96452 6.59001 11.4556C6.59001 12.9463 7.68002 14.1605 9.0026 14.1605C10.3467 14.1605 11.4155 12.9463 11.4155 11.4556ZM20.3363 11.4556C20.3574 9.97526 19.2782 8.75033 17.9237 8.75033C16.5797 8.75033 15.5108 9.96452 15.5108 11.4556C15.5108 12.9463 16.6008 14.1605 17.9237 14.1605C19.2782 14.1605 20.3363 12.9463 20.3363 11.4556Z" fill="#5865F2"/>
</svg>
