<svg width="49" height="48" viewBox="0 0 49 48" fill="none" xmlns="http://www.w3.org/2000/svg">
<g clip-path="url(#clip0_3633_2240)">
<path d="M24.5 19.6367V28.9313H37.4163C36.8492 31.9204 35.1471 34.4514 32.5944 36.1532L40.3835 42.1968C44.9217 38.0079 47.5399 31.8551 47.5399 24.546C47.5399 22.8443 47.3872 21.2077 47.1035 19.637L24.5 19.6367Z" fill="white"/>
<path d="M11.0492 28.5684L9.2925 29.9131L3.07422 34.7567C7.0233 42.5893 15.1172 48.0003 24.499 48.0003C30.9788 48.0003 36.4115 45.8621 40.3825 42.1968L32.5934 36.1531C30.4552 37.5931 27.7279 38.4659 24.499 38.4659C18.259 38.4659 12.9574 34.255 11.059 28.5822L11.0492 28.5684Z" fill="white"/>
<path d="M3.07436 13.2441C1.43808 16.4731 0.5 20.1168 0.5 24.0004C0.5 27.8839 1.43808 31.5276 3.07436 34.7566C3.07436 34.7783 11.0599 28.5602 11.0599 28.5602C10.58 27.1202 10.2962 25.593 10.2962 24.0001C10.2962 22.4072 10.58 20.88 11.0599 19.44L3.07436 13.2441Z" fill="white"/>
<path d="M24.4995 9.55636C28.0341 9.55636 31.1758 10.7781 33.6849 13.1345L40.5576 6.2619C36.3903 2.37833 30.9796 0 24.4995 0C15.1177 0 7.0233 5.38908 3.07422 13.2437L11.0596 19.44C12.9576 13.7672 18.2595 9.55636 24.4995 9.55636Z" fill="white"/>
</g>
<defs>
<clipPath id="clip0_3633_2240">
<rect width="48" height="48" fill="white" transform="translate(0.5)"/>
</clipPath>
</defs>
</svg>
