<svg width="27" height="26" viewBox="0 0 27 26" fill="none" xmlns="http://www.w3.org/2000/svg">
<path d="M9.30106 13.0004C9.30106 10.6809 11.1809 8.80005 13.5004 8.80005C15.8199 8.80005 17.7007 10.6809 17.7007 13.0004C17.7007 15.3199 15.8199 17.2007 13.5004 17.2007C11.1809 17.2007 9.30106 15.3199 9.30106 13.0004ZM7.03044 13.0004C7.03044 16.5738 9.92703 19.4703 13.5004 19.4703C17.0737 19.4703 19.9703 16.5738 19.9703 13.0004C19.9703 9.42703 17.0737 6.53044 13.5004 6.53044C9.92703 6.53044 7.03044 9.42703 7.03044 13.0004ZM18.7145 6.27391C18.7144 6.57295 18.8029 6.86532 18.969 7.11403C19.135 7.36274 19.3711 7.55663 19.6473 7.67119C19.9235 7.78574 20.2275 7.8158 20.5209 7.75758C20.8142 7.69935 21.0836 7.55546 21.2952 7.34408C21.5067 7.13271 21.6508 6.86336 21.7093 6.57008C21.7678 6.2768 21.7379 5.97278 21.6236 5.69645C21.5093 5.42012 21.3156 5.18391 21.067 5.01766C20.8184 4.85142 20.5261 4.76263 20.2271 4.76251H20.2265C19.8256 4.7627 19.4412 4.92197 19.1577 5.20536C18.8742 5.48874 18.7148 5.87306 18.7145 6.27391ZM8.40999 23.2565C7.18154 23.2005 6.51384 22.9959 6.07012 22.823C5.48185 22.594 5.06212 22.3213 4.62082 21.8806C4.17952 21.4399 3.90635 21.0205 3.67834 20.4323C3.50536 19.9888 3.30074 19.3209 3.2449 18.0924C3.18381 16.7643 3.17162 16.3653 3.17162 13.0005C3.17162 9.63569 3.18482 9.23783 3.2449 7.90858C3.30084 6.68013 3.50698 6.01354 3.67834 5.56871C3.90736 4.98044 4.18012 4.56071 4.62082 4.11941C5.06152 3.6781 5.48084 3.40494 6.07012 3.17693C6.51364 3.00395 7.18154 2.79933 8.40999 2.74349C9.73813 2.6824 10.1371 2.67021 13.5004 2.67021C16.8637 2.67021 17.2631 2.68341 18.5923 2.74349C19.8208 2.79943 20.4873 3.00557 20.9322 3.17693C21.5204 3.40494 21.9402 3.67871 22.3815 4.11941C22.8228 4.5601 23.0949 4.98044 23.324 5.56871C23.4969 6.01223 23.7016 6.68013 23.7574 7.90858C23.8185 9.23783 23.8307 9.63569 23.8307 13.0005C23.8307 16.3653 23.8185 16.7632 23.7574 18.0924C23.7015 19.3209 23.4958 19.9886 23.324 20.4323C23.0949 21.0205 22.8222 21.4403 22.3815 21.8806C21.9408 22.3209 21.5204 22.594 20.9322 22.823C20.4887 22.996 19.8208 23.2006 18.5923 23.2565C17.2642 23.3176 16.8652 23.3298 13.5004 23.3298C10.1356 23.3298 9.73773 23.3176 8.40999 23.2565ZM8.30566 0.476696C6.96432 0.537781 6.04774 0.750469 5.24729 1.06194C4.41831 1.38359 3.71654 1.81512 3.01528 2.51528C2.31401 3.21543 1.88359 3.91831 1.56194 4.74729C1.25047 5.54825 1.03778 6.46432 0.976696 7.80566C0.914603 9.14913 0.900391 9.57863 0.900391 13.0004C0.900391 16.4221 0.914603 16.8517 0.976696 18.1951C1.03778 19.5366 1.25047 20.4525 1.56194 21.2535C1.88359 22.082 2.31411 22.7857 3.01528 23.4855C3.71644 24.1854 4.41831 24.6163 5.24729 24.9388C6.04925 25.2503 6.96432 25.463 8.30566 25.5241C9.64983 25.5852 10.0786 25.6004 13.5004 25.6004C16.9221 25.6004 17.3517 25.5862 18.6951 25.5241C20.0366 25.463 20.9525 25.2503 21.7535 24.9388C22.582 24.6163 23.2842 24.1857 23.9855 23.4855C24.6868 22.7853 25.1163 22.082 25.4388 21.2535C25.7503 20.4525 25.964 19.5365 26.0241 18.1951C26.0852 16.8506 26.0994 16.4221 26.0994 13.0004C26.0994 9.57863 26.0852 9.14913 26.0241 7.80566C25.963 6.46422 25.7503 5.54774 25.4388 4.74729C25.1163 3.91881 24.6857 3.21654 23.9855 2.51528C23.2853 1.81401 22.582 1.38359 21.7545 1.06194C20.9525 0.750469 20.0365 0.536773 18.6961 0.476696C17.3527 0.415611 16.9232 0.400391 13.5014 0.400391C10.0796 0.400391 9.64983 0.414603 8.30566 0.476696Z" fill="url(#paint0_radial_1819_2815)"/>
<path d="M9.30106 13.0004C9.30106 10.6809 11.1809 8.80005 13.5004 8.80005C15.8199 8.80005 17.7007 10.6809 17.7007 13.0004C17.7007 15.3199 15.8199 17.2007 13.5004 17.2007C11.1809 17.2007 9.30106 15.3199 9.30106 13.0004ZM7.03044 13.0004C7.03044 16.5738 9.92703 19.4703 13.5004 19.4703C17.0737 19.4703 19.9703 16.5738 19.9703 13.0004C19.9703 9.42703 17.0737 6.53044 13.5004 6.53044C9.92703 6.53044 7.03044 9.42703 7.03044 13.0004ZM18.7145 6.27391C18.7144 6.57295 18.8029 6.86532 18.969 7.11403C19.135 7.36274 19.3711 7.55663 19.6473 7.67119C19.9235 7.78574 20.2275 7.8158 20.5209 7.75758C20.8142 7.69935 21.0836 7.55546 21.2952 7.34408C21.5067 7.13271 21.6508 6.86336 21.7093 6.57008C21.7678 6.2768 21.7379 5.97278 21.6236 5.69645C21.5093 5.42012 21.3156 5.18391 21.067 5.01766C20.8184 4.85142 20.5261 4.76263 20.2271 4.76251H20.2265C19.8256 4.7627 19.4412 4.92197 19.1577 5.20536C18.8742 5.48874 18.7148 5.87306 18.7145 6.27391ZM8.40999 23.2565C7.18154 23.2005 6.51384 22.9959 6.07012 22.823C5.48185 22.594 5.06212 22.3213 4.62082 21.8806C4.17952 21.4399 3.90635 21.0205 3.67834 20.4323C3.50536 19.9888 3.30074 19.3209 3.2449 18.0924C3.18381 16.7643 3.17162 16.3653 3.17162 13.0005C3.17162 9.63569 3.18482 9.23783 3.2449 7.90858C3.30084 6.68013 3.50698 6.01354 3.67834 5.56871C3.90736 4.98044 4.18012 4.56071 4.62082 4.11941C5.06152 3.6781 5.48084 3.40494 6.07012 3.17693C6.51364 3.00395 7.18154 2.79933 8.40999 2.74349C9.73813 2.6824 10.1371 2.67021 13.5004 2.67021C16.8637 2.67021 17.2631 2.68341 18.5923 2.74349C19.8208 2.79943 20.4873 3.00557 20.9322 3.17693C21.5204 3.40494 21.9402 3.67871 22.3815 4.11941C22.8228 4.5601 23.0949 4.98044 23.324 5.56871C23.4969 6.01223 23.7016 6.68013 23.7574 7.90858C23.8185 9.23783 23.8307 9.63569 23.8307 13.0005C23.8307 16.3653 23.8185 16.7632 23.7574 18.0924C23.7015 19.3209 23.4958 19.9886 23.324 20.4323C23.0949 21.0205 22.8222 21.4403 22.3815 21.8806C21.9408 22.3209 21.5204 22.594 20.9322 22.823C20.4887 22.996 19.8208 23.2006 18.5923 23.2565C17.2642 23.3176 16.8652 23.3298 13.5004 23.3298C10.1356 23.3298 9.73773 23.3176 8.40999 23.2565ZM8.30566 0.476696C6.96432 0.537781 6.04774 0.750469 5.24729 1.06194C4.41831 1.38359 3.71654 1.81512 3.01528 2.51528C2.31401 3.21543 1.88359 3.91831 1.56194 4.74729C1.25047 5.54825 1.03778 6.46432 0.976696 7.80566C0.914603 9.14913 0.900391 9.57863 0.900391 13.0004C0.900391 16.4221 0.914603 16.8517 0.976696 18.1951C1.03778 19.5366 1.25047 20.4525 1.56194 21.2535C1.88359 22.082 2.31411 22.7857 3.01528 23.4855C3.71644 24.1854 4.41831 24.6163 5.24729 24.9388C6.04925 25.2503 6.96432 25.463 8.30566 25.5241C9.64983 25.5852 10.0786 25.6004 13.5004 25.6004C16.9221 25.6004 17.3517 25.5862 18.6951 25.5241C20.0366 25.463 20.9525 25.2503 21.7535 24.9388C22.582 24.6163 23.2842 24.1857 23.9855 23.4855C24.6868 22.7853 25.1163 22.082 25.4388 21.2535C25.7503 20.4525 25.964 19.5365 26.0241 18.1951C26.0852 16.8506 26.0994 16.4221 26.0994 13.0004C26.0994 9.57863 26.0852 9.14913 26.0241 7.80566C25.963 6.46422 25.7503 5.54774 25.4388 4.74729C25.1163 3.91881 24.6857 3.21654 23.9855 2.51528C23.2853 1.81401 22.582 1.38359 21.7545 1.06194C20.9525 0.750469 20.0365 0.536773 18.6961 0.476696C17.3527 0.415611 16.9232 0.400391 13.5014 0.400391C10.0796 0.400391 9.64983 0.414603 8.30566 0.476696Z" fill="url(#paint1_radial_1819_2815)"/>
<defs>
<radialGradient id="paint0_radial_1819_2815" cx="0" cy="0" r="1" gradientUnits="userSpaceOnUse" gradientTransform="translate(4.24836 25.7194) scale(32.8965 32.8965)">
<stop offset="0.09" stop-color="#FA8F21"/>
<stop offset="0.78" stop-color="#D82D7E"/>
</radialGradient>
<radialGradient id="paint1_radial_1819_2815" cx="0" cy="0" r="1" gradientUnits="userSpaceOnUse" gradientTransform="translate(16.1831 26.8484) scale(25.927 25.927)">
<stop offset="0.64" stop-color="#8C3AAA" stop-opacity="0"/>
<stop offset="1" stop-color="#8C3AAA"/>
</radialGradient>
</defs>
</svg>
