<svg width="35" height="34" viewBox="0 0 35 34" fill="none" xmlns="http://www.w3.org/2000/svg">
<path d="M30.0984 26.0984C30.0984 28.0318 28.5318 29.5984 26.5984 29.5984H8.39844C6.46574 29.5984 4.89844 28.0318 4.89844 26.0984V7.89844C4.89844 5.96504 6.46574 4.39844 8.39844 4.39844H26.5984C28.5318 4.39844 30.0984 5.96504 30.0984 7.89844V26.0984Z" fill="#0288D1"/>
<path d="M9.10156 13.4996H12.6016V25.3996H9.10156V13.4996ZM10.8411 12.0996H10.8215C9.77706 12.0996 9.10156 11.3212 9.10156 10.3489C9.10156 9.35561 9.79806 8.59961 10.8614 8.59961C11.9261 8.59961 12.582 9.35561 12.6016 10.3489C12.6016 11.3205 11.9261 12.0996 10.8411 12.0996ZM25.9016 25.3996H22.4016V19.0303C22.4016 17.4917 21.5441 16.4417 20.1672 16.4417C19.1165 16.4417 18.5481 17.1501 18.2723 17.8347C18.1715 18.0797 18.2016 18.7573 18.2016 19.0996V25.3996H14.7016V13.4996H18.2016V15.3308C18.7063 14.5496 19.4966 13.4996 21.5182 13.4996C24.0228 13.4996 25.9009 15.0746 25.9009 18.5914L25.9016 25.3996Z" fill="white"/>
</svg>
