<svg width="67" height="48" viewBox="0 0 67 48" fill="none" xmlns="http://www.w3.org/2000/svg">
<path d="M42.0181 7.02779C42.744 9.54804 45.507 11.4255 48.8064 11.4255C52.6583 11.4255 55.781 8.86776 55.781 5.71276C55.781 2.55775 52.6583 0 48.8064 0C45.4384 0 42.6295 1.95514 41.9755 4.55574C36.335 5.05122 31.9305 8.96953 31.9305 13.7181C31.9305 13.7288 31.9305 13.7369 31.9305 13.7476C25.7961 13.9592 20.1948 15.3894 15.7478 17.6471C14.0965 16.5999 12.0234 15.9759 9.77369 15.9759C4.37511 15.9759 0 19.5594 0 23.9813C0 27.1898 2.302 29.9538 5.62748 31.2313C5.9512 40.5249 18.3146 48 33.5229 48C48.7311 48 61.1109 40.5169 61.4183 31.2153C64.7176 29.9297 67 27.1738 67 23.9839C67 19.5621 62.6249 15.9786 57.2263 15.9786C54.9864 15.9786 52.9231 16.5973 51.2751 17.6364C46.7888 15.3626 41.1254 13.9324 34.9289 13.7422C34.9289 13.7342 34.9289 13.7288 34.9289 13.7208C34.9289 10.3194 38.0157 7.49649 42.0181 7.03314V7.02779ZM15.3554 29.0619C15.5189 26.1587 17.8732 23.9304 20.6101 23.9304C23.347 23.9304 25.4397 26.2846 25.2762 29.1878C25.1127 32.0911 23.0691 33.1463 20.3289 33.1463C17.5887 33.1463 15.1919 31.9652 15.3554 29.0619ZM46.4389 23.9304C49.1791 23.9304 51.5334 26.1587 51.6937 29.0619C51.8572 31.9652 49.4571 33.1463 46.7202 33.1463C43.9833 33.1463 41.9363 32.0937 41.7728 29.1878C41.6093 26.2846 43.6988 23.9304 46.4389 23.9304ZM43.1821 35.779C43.6955 35.8219 44.0225 36.2585 43.823 36.6495C42.139 39.9464 38.1629 42.2631 33.5229 42.2631C28.8829 42.2631 24.91 39.9464 23.2227 36.6495C23.0233 36.2585 23.3503 35.8219 23.8636 35.779C26.8719 35.53 30.1255 35.3934 33.5229 35.3934C36.9203 35.3934 40.1706 35.53 43.1821 35.779Z" fill="white"/>
</svg>