<svg width="49" height="34" viewBox="0 0 49 34" fill="none" xmlns="http://www.w3.org/2000/svg">
<path d="M48.0219 7.39961C48.0219 7.39961 47.5531 4.09023 46.1094 2.63711C44.2812 0.72461 42.2375 0.715234 41.3 0.602734C34.5875 0.115234 24.5094 0.115234 24.5094 0.115234H24.4906C24.4906 0.115234 14.4125 0.115234 7.7 0.602734C6.7625 0.715234 4.71875 0.72461 2.89062 2.63711C1.44688 4.09023 0.9875 7.39961 0.9875 7.39961C0.9875 7.39961 0.5 11.2902 0.5 15.1715V18.809C0.5 22.6902 0.978125 26.5809 0.978125 26.5809C0.978125 26.5809 1.44687 29.8902 2.88125 31.3434C4.70937 33.2559 7.10938 33.1902 8.17813 33.3965C12.0219 33.7621 24.5 33.8746 24.5 33.8746C24.5 33.8746 34.5875 33.8559 41.3 33.3777C42.2375 33.2652 44.2812 33.2559 46.1094 31.3434C47.5531 29.8902 48.0219 26.5809 48.0219 26.5809C48.0219 26.5809 48.5 22.6996 48.5 18.809V15.1715C48.5 11.2902 48.0219 7.39961 48.0219 7.39961ZM19.5406 23.2246V9.73398L32.5062 16.5027L19.5406 23.2246Z" fill="white"/>
</svg>
