<svg width="30" height="25" viewBox="0 0 30 25" fill="none" xmlns="http://www.w3.org/2000/svg">
<path d="M12.5105 24.969C6.98756 24.8442 5.10121 24.7319 3.94175 24.4387C3.15729 24.2439 2.4756 23.8113 1.97577 23.1839C1.58946 22.7091 1.28224 21.9846 1.04389 20.9794C0.83944 20.142 0.759811 19.4453 0.646286 17.7434C0.472501 13.9024 0.431072 10.7621 0.646286 7.25335C0.823837 5.31569 0.909923 3.01546 2.08929 1.6735C2.64616 1.04544 3.29395 0.641264 4.02138 0.474179C5.15771 0.209352 9.99894 0 15.0107 0C20.0112 0 24.8632 0.209352 26.0006 0.474179C26.9094 0.683531 27.7616 1.31093 28.262 2.11994C29.3381 4.19761 29.3569 6.78115 29.4661 8.80203C29.5113 9.76492 29.5113 15.2325 29.4661 16.1954C29.2961 19.3892 29.1594 20.5191 28.7731 21.6907C28.5342 22.4304 28.3303 22.8207 27.9774 23.2533C27.4238 23.9189 26.7181 24.3617 25.9544 24.5226C21.175 24.9637 17.1166 25.0595 12.5105 24.969ZM19.8294 12.1358C17.1704 10.3917 14.6244 8.77429 12.0219 7.10014V17.116C14.7605 15.2886 17.6476 13.6145 19.8407 12.1219L19.8294 12.1358Z" fill="#CD201F"/>
</svg>
