<svg width="100" height="100" viewBox="0 0 100 100" fill="none" xmlns="http://www.w3.org/2000/svg">
<path d="M49.1902 51.3379C48.3585 51.13 47.6828 51.0087 47.0244 50.7834C40.3711 48.531 34.4455 44.9098 28.8144 40.7862C28.156 40.301 27.5323 39.6946 27.1165 39.0189C26.8912 38.655 26.9259 37.9273 27.1511 37.5115C27.3244 37.1996 28.0001 36.9744 28.3813 37.0437C29.109 37.165 29.854 37.4249 30.5124 37.7887C34.8613 40.1797 39.1929 42.5881 43.5072 45.0311C45.1185 45.9494 46.7125 46.9197 48.3066 47.8726C48.8437 48.1845 49.3635 48.531 49.8486 48.8949C50.403 49.2934 50.7322 49.8998 50.3684 50.5062C50.1258 50.9047 49.9526 51.3379 49.1902 51.3379Z" fill="#2E134D"/>
<path d="M74.9892 26.8029C74.8506 27.6345 74.7466 28.6048 74.5387 29.5404C73.707 33.2309 72.8754 36.9214 72.0091 40.5946C71.8185 41.3916 71.4893 42.1713 71.1081 42.8817C70.6056 43.8346 69.8952 44.1638 69.1156 44.0079C68.3359 43.8519 67.8507 43.2282 67.8334 42.1366C67.8161 41.3916 67.8334 40.5946 68.0067 39.8842C69.1849 35.2234 70.3977 30.5627 71.6279 25.9192C71.7665 25.3994 72.0091 24.8623 72.3556 24.4638C73.2046 23.4589 74.5387 23.7707 74.8679 25.0529C74.9892 25.5554 74.9372 26.1271 74.9892 26.8029Z" fill="#2E134D"/>
<path d="M28.5379 75.4907C27.7235 75.4214 26.9092 75.2481 26.1122 75.0402C25.4018 74.8496 24.8993 74.3645 24.83 73.5848C24.778 72.9264 25.4364 72.216 26.3028 72.112C27.4636 71.9734 28.6418 71.8521 29.8027 71.9041C33.3026 72.0601 36.8198 72.2853 40.3198 72.5279C41.4806 72.6145 42.6415 72.7704 43.8023 72.961C44.2009 73.0303 44.6167 73.1689 44.9286 73.3942C45.8122 74.0006 45.7429 75.1095 44.7899 75.5426C44.2528 75.7852 43.5944 75.8892 43.0053 75.8892C41.0648 75.9758 31.414 75.7159 28.5379 75.4907Z" fill="#2E134D"/>
</svg>
