<svg width="26" height="20" viewBox="0 0 26 20" fill="none" xmlns="http://www.w3.org/2000/svg">
<mask id="mask0_2040_21292" style="mask-type:luminance" maskUnits="userSpaceOnUse" x="0" y="0" width="26" height="20">
<rect width="26" height="20" fill="white"/>
</mask>
<g mask="url(#mask0_2040_21292)">
<path fill-rule="evenodd" clip-rule="evenodd" d="M0 0V20H26V0H0Z" fill="#F7FCFF"/>
<mask id="mask1_2040_21292" style="mask-type:luminance" maskUnits="userSpaceOnUse" x="0" y="0" width="26" height="20">
<path fill-rule="evenodd" clip-rule="evenodd" d="M0 0V20H26V0H0Z" fill="white"/>
</mask>
<g mask="url(#mask1_2040_21292)">
<path fill-rule="evenodd" clip-rule="evenodd" d="M0 0V6.66667H26V0H0Z" fill="#FF8C1A"/>
<path fill-rule="evenodd" clip-rule="evenodd" d="M0 13.334V20.0007H26V13.334H0Z" fill="#5EAA22"/>
<path fill-rule="evenodd" clip-rule="evenodd" d="M9.75 9.99935C9.75 11.8403 11.2051 13.3327 13 13.3327C14.7949 13.3327 16.25 11.8403 16.25 9.99935C16.25 8.1584 14.7949 6.66602 13 6.66602C11.2051 6.66602 9.75 8.1584 9.75 9.99935ZM15.4375 9.99949C15.4375 11.3802 14.3462 12.4995 13 12.4995C11.6538 12.4995 10.5625 11.3802 10.5625 9.99949C10.5625 8.61878 11.6538 7.49949 13 7.49949C14.3462 7.49949 15.4375 8.61878 15.4375 9.99949Z" fill="#3D58DB"/>
<path fill-rule="evenodd" clip-rule="evenodd" d="M12.9955 10.7166L12.5317 13.3171L12.801 10.6879L11.6417 13.049L12.6223 10.6042L10.8613 12.5347L12.4738 10.4722L10.2539 11.8157L12.3676 10.3027L9.86855 10.9503L12.3122 10.1093L9.73654 10.0086L12.3122 9.90779L9.86855 9.06685L12.3676 9.71442L10.2539 8.20144L12.4738 9.54488L10.8613 7.48243L12.6223 9.4129L11.6417 6.96807L12.801 9.32918L12.5317 6.70004L12.9955 9.3005L13.4593 6.70004L13.19 9.32918L14.3493 6.96807L13.3687 9.4129L15.1297 7.48243L13.5172 9.54488L15.7371 8.20144L13.6235 9.71442L16.1225 9.06685L13.6788 9.90779L16.2545 10.0086L13.6788 10.1093L16.1225 10.9503L13.6235 10.3027L15.7371 11.8157L13.5172 10.4722L15.1297 12.5347L13.3687 10.6042L14.3493 13.049L13.19 10.6879L13.4593 13.3171L12.9955 10.7166Z" fill="#3D58DB"/>
</g>
</g>
</svg>
