<svg width="26" height="20" viewBox="0 0 26 20" fill="none" xmlns="http://www.w3.org/2000/svg">
<mask id="mask0_2040_21305" style="mask-type:luminance" maskUnits="userSpaceOnUse" x="0" y="0" width="26" height="20">
<rect width="26" height="20" fill="white"/>
</mask>
<g mask="url(#mask0_2040_21305)">
<path fill-rule="evenodd" clip-rule="evenodd" d="M0 0H26V20H0V0Z" fill="#F7FCFF"/>
<path fill-rule="evenodd" clip-rule="evenodd" d="M0 12.2227V13.8893H26V12.2227H0Z" fill="#E31D1C"/>
<path fill-rule="evenodd" clip-rule="evenodd" d="M0 15.2773V16.944H26V15.2773H0Z" fill="#E31D1C"/>
<path fill-rule="evenodd" clip-rule="evenodd" d="M0 6.11133V7.77799H26V6.11133H0Z" fill="#E31D1C"/>
<path fill-rule="evenodd" clip-rule="evenodd" d="M0 18.334V20.0007H26V18.334H0Z" fill="#E31D1C"/>
<path fill-rule="evenodd" clip-rule="evenodd" d="M0 9.16602V10.8327H26V9.16602H0Z" fill="#E31D1C"/>
<path fill-rule="evenodd" clip-rule="evenodd" d="M0 0V1.66667H26V0H0Z" fill="#E31D1C"/>
<path fill-rule="evenodd" clip-rule="evenodd" d="M0 3.05469V4.72135H26V3.05469H0Z" fill="#E31D1C"/>
<rect width="16.25" height="10.8333" fill="#2E42A5"/>
<path fill-rule="evenodd" clip-rule="evenodd" d="M1.39887 2.44819L0.809092 2.87226L1.00821 2.11759L0.484375 1.63933H1.16857L1.39804 1.02344L1.66712 1.63933H2.25038L1.7921 2.11759L1.96952 2.87226L1.39887 2.44819ZM4.64889 2.44819L4.05911 2.87226L4.25823 2.11759L3.73439 1.63933H4.41859L4.64806 1.02344L4.91714 1.63933H5.5004L5.04212 2.11759L5.21954 2.87226L4.64889 2.44819ZM7.30913 2.87226L7.89891 2.44819L8.46956 2.87226L8.29214 2.11759L8.75042 1.63933H8.16716L7.89808 1.02344L7.66861 1.63933H6.98441L7.50824 2.11759L7.30913 2.87226ZM11.1489 2.44819L10.5591 2.87226L10.7582 2.11759L10.2344 1.63933H10.9186L11.148 1.02344L11.4171 1.63933H12.0004L11.5421 2.11759L11.7195 2.87226L11.1489 2.44819ZM0.809092 6.20571L1.39887 5.78164L1.96952 6.20571L1.7921 5.45104L2.25038 4.97278H1.66712L1.39804 4.35689L1.16857 4.97278H0.484375L1.00821 5.45104L0.809092 6.20571ZM4.64889 5.78164L4.05911 6.20571L4.25823 5.45104L3.73439 4.97278H4.41859L4.64806 4.35689L4.91714 4.97278H5.5004L5.04212 5.45104L5.21954 6.20571L4.64889 5.78164ZM7.30913 6.20571L7.89891 5.78164L8.46956 6.20571L8.29214 5.45104L8.75042 4.97278H8.16716L7.89808 4.35689L7.66861 4.97278H6.98441L7.50824 5.45104L7.30913 6.20571ZM11.1489 5.78164L10.5591 6.20571L10.7582 5.45104L10.2344 4.97278H10.9186L11.148 4.35689L11.4171 4.97278H12.0004L11.5421 5.45104L11.7195 6.20571L11.1489 5.78164ZM0.809092 9.53917L1.39887 9.1151L1.96952 9.53917L1.7921 8.78449L2.25038 8.30623H1.66712L1.39804 7.69034L1.16857 8.30623H0.484375L1.00821 8.78449L0.809092 9.53917ZM4.64889 9.1151L4.05911 9.53917L4.25823 8.78449L3.73439 8.30623H4.41859L4.64806 7.69034L4.91714 8.30623H5.5004L5.04212 8.78449L5.21954 9.53917L4.64889 9.1151ZM7.30913 9.53917L7.89891 9.1151L8.46956 9.53917L8.29214 8.78449L8.75042 8.30623H8.16716L7.89808 7.69034L7.66861 8.30623H6.98441L7.50824 8.78449L7.30913 9.53917ZM11.1489 9.1151L10.5591 9.53917L10.7582 8.78449L10.2344 8.30623H10.9186L11.148 7.69034L11.4171 8.30623H12.0004L11.5421 8.78449L11.7195 9.53917L11.1489 9.1151ZM13.8091 2.87226L14.3989 2.44819L14.9695 2.87226L14.7921 2.11759L15.2504 1.63933H14.6671L14.3981 1.02344L14.1686 1.63933H13.4844L14.0082 2.11759L13.8091 2.87226ZM14.3989 5.78164L13.8091 6.20571L14.0082 5.45104L13.4844 4.97278H14.1686L14.3981 4.35689L14.6671 4.97278H15.2504L14.7921 5.45104L14.9695 6.20571L14.3989 5.78164ZM13.8091 9.53917L14.3989 9.1151L14.9695 9.53917L14.7921 8.78449L15.2504 8.30623H14.6671L14.3981 7.69034L14.1686 8.30623H13.4844L14.0082 8.78449L13.8091 9.53917ZM3.02388 4.11513L2.4341 4.53921L2.63322 3.78453L2.10938 3.30627H2.79358L3.02305 2.69038L3.29213 3.30627H3.87539L3.41711 3.78453L3.59453 4.53921L3.02388 4.11513ZM5.68412 4.53921L6.2739 4.11513L6.84455 4.53921L6.66713 3.78453L7.12541 3.30627H6.54215L6.27307 2.69038L6.0436 3.30627H5.3594L5.88323 3.78453L5.68412 4.53921ZM9.52386 4.11513L8.93408 4.53921L9.1332 3.78453L8.60937 3.30627H9.29356L9.52304 2.69038L9.79211 3.30627H10.3754L9.91709 3.78453L10.0945 4.53921L9.52386 4.11513ZM2.4341 7.87222L3.02388 7.44815L3.59453 7.87222L3.41711 7.11755L3.87539 6.63929H3.29213L3.02305 6.0234L2.79358 6.63929H2.10938L2.63322 7.11755L2.4341 7.87222ZM6.2739 7.44815L5.68412 7.87222L5.88323 7.11755L5.3594 6.63929H6.0436L6.27307 6.0234L6.54215 6.63929H7.12541L6.66713 7.11755L6.84455 7.87222L6.2739 7.44815ZM8.93408 7.87222L9.52386 7.44815L10.0945 7.87222L9.91709 7.11755L10.3754 6.63929H9.79211L9.52304 6.0234L9.29356 6.63929H8.60937L9.1332 7.11755L8.93408 7.87222ZM12.7739 4.11513L12.1841 4.53921L12.3832 3.78453L11.8594 3.30627H12.5436L12.7731 2.69038L13.0421 3.30627H13.6254L13.1671 3.78453L13.3445 4.53921L12.7739 4.11513ZM12.1841 7.87222L12.7739 7.44815L13.3445 7.87222L13.1671 7.11755L13.6254 6.63929H13.0421L12.7731 6.0234L12.5436 6.63929H11.8594L12.3832 7.11755L12.1841 7.87222Z" fill="#F7FCFF"/>
</g>
</svg>
